<svg width="759" height="181" viewBox="0 0 759 181" fill="none" xmlns="http://www.w3.org/2000/svg">
<path d="M82.4968 177.376C77.692 182.186 69.8769 182.211 65.0415 177.431C60.206 172.652 60.1812 164.877 64.986 160.067L169.385 55.551C174.19 50.7408 182.005 50.7161 186.841 55.4959C191.676 60.2757 191.701 68.0499 186.896 72.8601L82.4968 177.376Z" fill="#ED4B4B"/>
<path d="M47.5307 160.122C42.7258 164.932 34.9108 164.957 30.0754 160.177C25.2399 155.398 25.2151 147.623 30.0199 142.813L60.4698 112.329C65.2746 107.519 73.0896 107.494 77.9251 112.274C82.7606 117.054 82.7854 124.828 77.9805 129.638L47.5307 160.122Z" fill="#ED4B4B"/>
<path d="M104.08 103.509C99.2755 108.32 91.4605 108.344 86.6251 103.564C81.7896 98.7847 81.7648 91.0105 86.5696 86.2003L147.469 25.2326C152.274 20.4224 160.089 20.3977 164.925 25.1775C169.76 29.9572 169.785 37.7315 164.98 42.5417L104.08 103.509Z" fill="#ED4B4B"/>
<path d="M51.7144 103.675C46.9095 108.485 39.0945 108.51 34.259 103.73C29.4236 98.9502 29.3988 91.176 34.2036 86.3657L116.853 3.62388C121.658 -1.18634 129.473 -1.21103 134.308 3.56873C139.144 8.3485 139.169 16.1227 134.364 20.9329L51.7144 103.675Z" fill="#ED4B4B"/>
<path d="M21.0982 82.066C16.2934 86.8763 8.47837 86.901 3.6429 82.1212C-1.19257 77.3414 -1.21739 69.5672 3.58747 64.757L38.3873 29.9183C43.1921 25.1081 51.0072 25.0834 55.8426 29.8632C60.6781 34.6429 60.7029 42.4172 55.8981 47.2274L21.0982 82.066Z" fill="#ED4B4B"/>
<path d="M169.663 142.372C164.858 147.182 157.043 147.207 152.207 142.427C147.372 137.647 147.347 129.873 152.152 125.063L173.902 103.289C178.707 98.4786 186.522 98.4539 191.357 103.234C196.193 108.013 196.217 115.788 191.413 120.598L169.663 142.372Z" fill="#ED4B4B"/>
<path d="M134.863 177.211C130.058 182.021 122.243 182.046 117.408 177.266C112.572 172.486 112.547 164.712 117.352 159.902C122.157 155.091 129.972 155.067 134.807 159.846C139.643 164.626 139.668 172.4 134.863 177.211Z" fill="white"/>
<path d="M29.9645 125.449C25.1596 130.259 17.3446 130.284 12.5092 125.504C7.67369 120.724 7.64887 112.95 12.4537 108.14C17.2586 103.33 25.0736 103.305 29.9091 108.085C34.7445 112.865 34.7693 120.639 29.9645 125.449Z" fill="white"/>
<path d="M81.9979 21.0984C77.1931 25.9086 69.378 25.9333 64.5426 21.1535C59.7071 16.3737 59.6823 8.59953 64.4871 3.78931C69.292 -1.02091 77.107 -1.0456 81.9425 3.73417C86.7779 8.51393 86.8028 16.2881 81.9979 21.0984Z" fill="white"/>
<path d="M690.329 96.231C690.329 103.905 692.1 109.612 695.642 113.35C699.282 116.991 703.906 118.811 709.514 118.811C715.221 118.811 719.845 116.991 723.387 113.35C727.027 109.612 728.847 104.102 728.847 96.8213V92.689C728.847 84.9164 727.027 79.1116 723.387 75.2744C719.747 71.3389 715.122 69.3712 709.514 69.3712C703.906 69.3712 699.282 71.2897 695.642 75.1269C692.1 78.964 690.329 84.6213 690.329 92.0987V96.231ZM747 96.231C747 104.004 745.377 110.645 742.13 116.155C738.981 121.664 734.603 125.895 728.995 128.847C723.387 131.7 716.893 133.126 709.514 133.126C702.234 133.126 695.789 131.7 690.181 128.847C684.573 125.895 680.146 121.713 676.899 116.302C673.75 110.792 672.176 104.299 672.176 96.8213V92.689C672.176 84.818 673.75 78.0785 676.899 72.4704C680.146 66.8623 684.573 62.5824 690.181 59.6308C695.888 56.6792 702.332 55.2034 709.514 55.2034C716.893 55.2034 723.387 56.6792 728.995 59.6308C734.603 62.5824 738.981 66.8131 742.13 72.3228C745.377 77.8325 747 84.4245 747 92.0987V96.231Z" fill="white"/>
<path d="M627.115 131.355V56.9743H644.087V75.7172H642.463C643.742 69.5188 646.103 64.6978 649.547 61.2542C653.089 57.8106 658.451 56.0888 665.633 56.0888H670.946V71.5849H664.896C657.91 71.5849 652.843 73.2575 649.695 76.6027C646.546 79.9479 644.972 85.064 644.972 91.9511V131.355H627.115Z" fill="white"/>
<path d="M542.354 131.355V31H585.3C596.516 31 605.273 33.804 611.569 39.4121C617.866 44.9218 621.015 52.2517 621.015 61.4018V62.8776C621.015 69.1744 619.539 74.6841 616.587 79.4067C613.734 84.0309 609.602 87.6221 604.19 90.1802C598.779 92.7382 592.285 94.0173 584.71 94.0173H560.654V131.355H542.354ZM560.654 79.4067H583.972C589.875 79.4067 594.401 78.0785 597.549 75.422C600.698 72.6672 602.272 68.6825 602.272 63.4679V61.9921C602.272 56.7776 600.55 52.7437 597.106 49.8904C593.663 47.0372 588.596 45.6106 581.906 45.6106H560.654V79.4067Z" fill="white"/>
<path d="M440.67 131.355C435.16 131.355 430.88 130.617 427.83 129.142C424.78 127.666 422.616 125.551 421.337 122.796C420.058 119.942 419.418 116.45 419.418 112.317V38.8218L437.276 35.575V109.661C437.276 113.006 437.817 115.269 438.899 116.45C440.08 117.532 442.293 118.073 445.54 118.073H454.69V131.355H440.67ZM405.25 70.2567V56.9743H455.576V70.2567H405.25Z" fill="white"/>
<path d="M360.386 133.126C352.318 133.126 346.169 131.109 341.938 127.076C337.707 123.042 335.592 117.925 335.592 111.727C335.592 107.3 336.625 103.708 338.691 100.954C340.757 98.1004 343.414 95.8375 346.661 94.1649C350.006 92.4923 353.597 91.2624 357.434 90.4753L387.098 83.9817V94.9028L362.599 101.249C359.943 101.839 357.778 102.872 356.106 104.348C354.433 105.725 353.597 107.792 353.597 110.546C353.597 113.793 354.778 116.351 357.139 118.221C359.5 119.992 362.501 120.877 366.141 120.877C371.061 120.877 375.095 119.45 378.243 116.597C381.391 113.646 382.966 109.809 382.966 105.086V81.3253C382.966 77.193 381.736 74.0446 379.276 71.8801C376.915 69.6171 373.471 68.4857 368.945 68.4857C364.616 68.4857 361.173 69.4696 358.615 71.4373C356.057 73.4051 354.581 76.3567 354.187 80.2922H336.478C337.068 72.4212 340.364 66.272 346.365 61.8445C352.466 57.4171 360.287 55.2034 369.831 55.2034C379.866 55.2034 387.541 57.5647 392.854 62.2873C398.167 67.0099 400.823 73.4543 400.823 81.6204V131.355H384.146V113.646L386.36 115.121C384.884 120.73 381.933 125.157 377.505 128.404C373.078 131.552 367.371 133.126 360.386 133.126Z" fill="white"/>
<path d="M489.52 133.126C481.452 133.126 475.303 131.109 471.072 127.076C466.841 123.042 464.726 117.925 464.726 111.727C464.726 107.3 465.759 103.708 467.825 100.954C469.891 98.1004 472.548 95.8375 475.794 94.1649C479.14 92.4923 482.731 91.2624 486.568 90.4753L516.232 83.9817V94.9028L491.733 101.249C489.077 101.839 486.912 102.872 485.24 104.348C483.567 105.725 482.731 107.792 482.731 110.546C482.731 113.793 483.911 116.351 486.273 118.221C488.634 119.992 491.635 120.877 495.275 120.877C500.195 120.877 504.228 119.45 507.377 116.597C510.525 113.646 512.099 109.809 512.099 105.086V81.3253C512.099 77.193 510.87 74.0446 508.41 71.8801C506.049 69.6171 502.605 68.4857 498.079 68.4857C493.75 68.4857 490.307 69.4696 487.749 71.4373C485.19 73.4051 483.715 76.3567 483.321 80.2922H465.611C466.202 72.4212 469.498 66.272 475.499 61.8445C481.599 57.4171 489.421 55.2034 498.965 55.2034C509 55.2034 516.675 57.5647 521.987 62.2873C527.3 67.0099 529.957 73.4543 529.957 81.6204V131.355H513.28V113.646L515.494 115.121C514.018 120.73 511.066 125.157 506.639 128.404C502.212 131.552 496.505 133.126 489.52 133.126Z" fill="white"/>
<path d="M328.115 82.8011C328.115 93.427 325.753 102.38 321.031 109.661C316.406 116.843 310.11 122.255 302.14 125.895C294.171 129.535 285.267 131.355 275.428 131.355H241.042V31H275.428C285.365 31 294.269 32.8202 302.14 36.4605C310.11 40.0025 316.406 45.3646 321.031 52.5469C325.753 59.6308 328.115 68.4365 328.115 78.964V82.8011ZM259.194 116.45H274.69C281.676 116.45 287.776 115.171 292.99 112.613C298.205 109.956 302.189 106.168 304.944 101.249C307.798 96.3294 309.224 90.3769 309.224 83.3914V79.5543C309.224 72.372 307.798 66.272 304.944 61.2542C302.091 56.2364 298.057 52.4485 292.843 49.8904C287.628 47.234 281.577 45.9057 274.69 45.9057H259.194V116.45Z" fill="white"/>
<path d="M243.56 172.64V150.88H247.016V172.64H243.56ZM251.614 172.64V156.576H254.814V159.84H254.462C254.953 158.688 255.668 157.792 256.606 157.152C257.545 156.512 258.654 156.192 259.934 156.192C261.022 156.192 262.004 156.426 262.878 156.896C263.753 157.344 264.446 158.037 264.958 158.976C265.492 159.914 265.758 161.098 265.758 162.528V172.64H262.398V162.912C262.398 161.653 262.078 160.672 261.438 159.968C260.82 159.242 259.988 158.88 258.942 158.88C257.748 158.88 256.788 159.317 256.062 160.192C255.337 161.066 254.974 162.197 254.974 163.584V172.64H251.614ZM275.313 172.64C274.268 172.64 273.447 172.49 272.849 172.192C272.252 171.893 271.815 171.456 271.537 170.88C271.281 170.304 271.153 169.578 271.153 168.704V152.608L274.513 151.936V168.32C274.513 169.002 274.62 169.472 274.833 169.728C275.068 169.984 275.516 170.112 276.177 170.112H278.417V172.64H275.313ZM267.953 159.104V156.576H278.609V159.104H267.953ZM280.655 164.288C280.655 162.624 280.986 161.184 281.647 159.968C282.308 158.752 283.226 157.824 284.399 157.184C285.572 156.522 286.916 156.192 288.431 156.192C289.924 156.192 291.226 156.501 292.335 157.12C293.466 157.738 294.34 158.634 294.959 159.808C295.578 160.981 295.887 162.4 295.887 164.064V165.216H283.055V162.816H293.071L292.527 163.392C292.527 161.92 292.143 160.778 291.375 159.968C290.628 159.136 289.604 158.72 288.303 158.72C287.023 158.72 285.988 159.146 285.199 160C284.41 160.853 284.015 162.016 284.015 163.488V165.376C284.015 166.954 284.442 168.202 285.295 169.12C286.148 170.016 287.226 170.464 288.527 170.464C289.594 170.464 290.436 170.229 291.055 169.76C291.695 169.29 292.111 168.714 292.303 168.032H295.599C295.279 169.525 294.5 170.73 293.263 171.648C292.026 172.565 290.447 173.024 288.527 173.024C286.927 173.024 285.53 172.704 284.335 172.064C283.162 171.402 282.255 170.474 281.615 169.28C280.975 168.085 280.655 166.677 280.655 165.056V164.288ZM299.302 172.64V150.304H302.662V172.64H299.302ZM307.052 172.64V156.576H310.412V172.64H307.052ZM306.796 153.92V150.336H310.636V153.92H306.796ZM321.586 178.624C317.106 178.624 314.652 177.056 314.226 173.92H317.65C317.799 174.688 318.194 175.253 318.834 175.616C319.495 175.978 320.423 176.16 321.618 176.16H322.258C323.666 176.16 324.7 175.861 325.362 175.264C326.044 174.666 326.386 173.77 326.386 172.576V168.384L327.282 167.424C326.898 168.938 326.151 170.122 325.042 170.976C323.932 171.829 322.567 172.256 320.946 172.256C319.623 172.256 318.418 171.946 317.33 171.328C316.263 170.709 315.42 169.834 314.802 168.704C314.183 167.552 313.874 166.186 313.874 164.608V163.904C313.874 162.304 314.194 160.928 314.834 159.776C315.474 158.624 316.327 157.738 317.394 157.12C318.482 156.501 319.687 156.192 321.01 156.192C322.631 156.192 324.007 156.618 325.138 157.472C326.268 158.325 326.983 159.52 327.282 161.056L326.482 160.128V156.576H329.714V172.576C329.714 174.645 329.074 176.17 327.794 177.152C326.514 178.133 324.668 178.624 322.258 178.624H321.586ZM321.746 169.728C323.09 169.728 324.188 169.28 325.042 168.384C325.916 167.488 326.354 166.314 326.354 164.864V163.648C326.354 162.688 326.14 161.845 325.714 161.12C325.308 160.394 324.754 159.84 324.05 159.456C323.367 159.05 322.588 158.848 321.714 158.848C320.37 158.848 319.292 159.296 318.482 160.192C317.671 161.088 317.266 162.325 317.266 163.904V164.608C317.266 166.208 317.671 167.466 318.482 168.384C319.314 169.28 320.402 169.728 321.746 169.728ZM333.155 164.288C333.155 162.624 333.486 161.184 334.147 159.968C334.808 158.752 335.726 157.824 336.899 157.184C338.072 156.522 339.416 156.192 340.931 156.192C342.424 156.192 343.726 156.501 344.835 157.12C345.966 157.738 346.84 158.634 347.459 159.808C348.078 160.981 348.387 162.4 348.387 164.064V165.216H335.555V162.816H345.571L345.027 163.392C345.027 161.92 344.643 160.778 343.875 159.968C343.128 159.136 342.104 158.72 340.803 158.72C339.523 158.72 338.488 159.146 337.699 160C336.91 160.853 336.515 162.016 336.515 163.488V165.376C336.515 166.954 336.942 168.202 337.795 169.12C338.648 170.016 339.726 170.464 341.027 170.464C342.094 170.464 342.936 170.229 343.555 169.76C344.195 169.29 344.611 168.714 344.803 168.032H348.099C347.779 169.525 347 170.73 345.763 171.648C344.526 172.565 342.947 173.024 341.027 173.024C339.427 173.024 338.03 172.704 336.835 172.064C335.662 171.402 334.755 170.474 334.115 169.28C333.475 168.085 333.155 166.677 333.155 165.056V164.288ZM335.747 154.592L339.235 149.856H342.627L346.115 154.592H343.395L340.931 151.808L338.467 154.592H335.747ZM351.802 172.64V156.576H355.002V159.84H354.65C355.14 158.688 355.855 157.792 356.794 157.152C357.732 156.512 358.842 156.192 360.122 156.192C361.21 156.192 362.191 156.426 363.066 156.896C363.94 157.344 364.634 158.037 365.146 158.976C365.679 159.914 365.946 161.098 365.946 162.528V172.64H362.586V162.912C362.586 161.653 362.266 160.672 361.626 159.968C361.007 159.242 360.175 158.88 359.13 158.88C357.935 158.88 356.975 159.317 356.25 160.192C355.524 161.066 355.162 162.197 355.162 163.584V172.64H351.802ZM369.28 164.288C369.28 162.581 369.621 161.13 370.304 159.936C370.987 158.72 371.925 157.792 373.12 157.152C374.336 156.512 375.701 156.192 377.216 156.192C378.709 156.192 379.947 156.458 380.928 156.992C381.931 157.525 382.688 158.218 383.2 159.072C383.733 159.904 384.043 160.768 384.128 161.664H380.736C380.587 160.917 380.224 160.266 379.648 159.712C379.072 159.157 378.219 158.88 377.088 158.88C375.765 158.88 374.699 159.328 373.888 160.224C373.077 161.098 372.672 162.389 372.672 164.096V165.12C372.672 166.784 373.088 168.074 373.92 168.992C374.752 169.888 375.829 170.336 377.152 170.336C378.261 170.336 379.115 170.048 379.712 169.472C380.331 168.874 380.715 168.149 380.864 167.296H384.192C384.107 168.298 383.776 169.237 383.2 170.112C382.645 170.986 381.845 171.69 380.8 172.224C379.776 172.757 378.507 173.024 376.992 173.024C375.456 173.024 374.101 172.714 372.928 172.096C371.776 171.456 370.88 170.538 370.24 169.344C369.6 168.149 369.28 166.741 369.28 165.12V164.288ZM387.739 172.64V156.576H391.099V172.64H387.739ZM387.483 153.92V150.336H391.323V153.92H387.483ZM400.225 173.024C398.497 173.024 397.175 172.586 396.257 171.712C395.361 170.837 394.913 169.749 394.913 168.448C394.913 167.488 395.127 166.72 395.553 166.144C395.98 165.546 396.535 165.077 397.217 164.736C397.921 164.394 398.689 164.128 399.521 163.936L405.825 162.528V164.672L400.321 166.112C399.745 166.261 399.265 166.496 398.881 166.816C398.497 167.136 398.305 167.616 398.305 168.256C398.305 169.002 398.572 169.589 399.105 170.016C399.66 170.442 400.364 170.656 401.217 170.656C402.369 170.656 403.319 170.314 404.065 169.632C404.833 168.928 405.217 168.021 405.217 166.912V161.728C405.217 160.789 404.919 160.064 404.321 159.552C403.745 159.018 402.935 158.752 401.889 158.752C400.865 158.752 400.055 158.986 399.457 159.456C398.86 159.925 398.508 160.608 398.401 161.504H395.073C395.223 159.861 395.927 158.57 397.185 157.632C398.465 156.672 400.097 156.192 402.081 156.192C404.151 156.192 405.751 156.693 406.881 157.696C408.012 158.698 408.577 160.032 408.577 161.696V172.64H405.441V168.8L405.889 169.184C405.505 170.378 404.833 171.317 403.873 172C402.935 172.682 401.719 173.024 400.225 173.024Z" fill="#ED4B4B"/>
<path d="M426.01 173.024C424.282 173.024 422.97 172.586 422.074 171.712C421.199 170.837 420.762 169.77 420.762 168.512C420.762 167.573 420.964 166.816 421.37 166.24C421.775 165.664 422.308 165.216 422.97 164.896C423.652 164.554 424.399 164.288 425.21 164.096L431.418 162.656V164.608L425.754 166.144C425.156 166.293 424.655 166.528 424.25 166.848C423.866 167.168 423.674 167.669 423.674 168.352C423.674 169.141 423.962 169.77 424.538 170.24C425.114 170.688 425.86 170.912 426.778 170.912C428.015 170.912 429.039 170.538 429.85 169.792C430.66 169.045 431.066 168.074 431.066 166.88V161.664C431.066 160.661 430.746 159.882 430.106 159.328C429.487 158.773 428.612 158.496 427.482 158.496C426.372 158.496 425.498 158.752 424.858 159.264C424.218 159.776 423.844 160.501 423.738 161.44H420.858C421.028 159.861 421.732 158.602 422.97 157.664C424.207 156.725 425.775 156.256 427.674 156.256C429.636 156.256 431.172 156.746 432.282 157.728C433.391 158.709 433.946 159.989 433.946 161.568V172.64H431.258V168.8L431.674 169.248C431.268 170.421 430.586 171.349 429.626 172.032C428.687 172.693 427.482 173.024 426.01 173.024ZM438.619 172.64V156.64H441.371V159.84H441.019C441.552 158.688 442.288 157.802 443.227 157.184C444.165 156.565 445.264 156.256 446.523 156.256C447.611 156.256 448.592 156.49 449.467 156.96C450.341 157.429 451.035 158.133 451.547 159.072C452.08 160.01 452.347 161.205 452.347 162.656V172.64H449.467V162.912C449.467 161.568 449.136 160.512 448.475 159.744C447.813 158.954 446.917 158.56 445.787 158.56C444.528 158.56 443.493 159.04 442.683 160C441.893 160.938 441.499 162.133 441.499 163.584V172.64H438.619ZM461.697 173.024C459.969 173.024 458.657 172.586 457.761 171.712C456.886 170.837 456.449 169.77 456.449 168.512C456.449 167.573 456.652 166.816 457.057 166.24C457.462 165.664 457.996 165.216 458.657 164.896C459.34 164.554 460.086 164.288 460.897 164.096L467.105 162.656V164.608L461.441 166.144C460.844 166.293 460.342 166.528 459.937 166.848C459.553 167.168 459.361 167.669 459.361 168.352C459.361 169.141 459.649 169.77 460.225 170.24C460.801 170.688 461.548 170.912 462.465 170.912C463.702 170.912 464.726 170.538 465.537 169.792C466.348 169.045 466.753 168.074 466.753 166.88V161.664C466.753 160.661 466.433 159.882 465.793 159.328C465.174 158.773 464.3 158.496 463.169 158.496C462.06 158.496 461.185 158.752 460.545 159.264C459.905 159.776 459.532 160.501 459.425 161.44H456.545C456.716 159.861 457.42 158.602 458.657 157.664C459.894 156.725 461.462 156.256 463.361 156.256C465.324 156.256 466.86 156.746 467.969 157.728C469.078 158.709 469.633 159.989 469.633 161.568V172.64H466.945V168.8L467.361 169.248C466.956 170.421 466.273 171.349 465.313 172.032C464.374 172.693 463.169 173.024 461.697 173.024ZM474.306 172.64V150.24H477.186V172.64H474.306ZM481.994 172.64V156.64H484.874V172.64H481.994ZM484.234 154.4H481.866L484.362 149.728H487.754L484.234 154.4ZM495.121 172.64C494.225 172.64 493.5 172.501 492.945 172.224C492.412 171.946 492.017 171.53 491.761 170.976C491.505 170.421 491.377 169.717 491.377 168.864V152.64L494.257 152V168.672C494.257 169.333 494.364 169.802 494.577 170.08C494.791 170.336 495.196 170.464 495.793 170.464H498.289V172.64H495.121ZM488.081 158.816V156.64H498.481V158.816H488.081ZM502.088 172.64V156.64H504.968V172.64H502.088ZM501.832 153.824V150.496H505.224V153.824H501.832ZM508.815 164.32C508.815 162.656 509.146 161.226 509.807 160.032C510.49 158.816 511.418 157.888 512.591 157.248C513.786 156.586 515.13 156.256 516.623 156.256C518.052 156.256 519.247 156.522 520.207 157.056C521.167 157.568 521.903 158.229 522.415 159.04C522.927 159.829 523.226 160.64 523.311 161.472H520.367C520.218 160.725 519.834 160.053 519.215 159.456C518.596 158.858 517.679 158.56 516.463 158.56C515.034 158.56 513.882 159.04 513.007 160C512.154 160.96 511.727 162.336 511.727 164.128V165.152C511.727 166.901 512.164 168.266 513.039 169.248C513.935 170.229 515.098 170.72 516.527 170.72C517.722 170.72 518.639 170.41 519.279 169.792C519.94 169.152 520.346 168.405 520.495 167.552H523.375C523.29 168.469 522.97 169.354 522.415 170.208C521.882 171.04 521.114 171.722 520.111 172.256C519.108 172.768 517.871 173.024 516.399 173.024C514.884 173.024 513.551 172.704 512.399 172.064C511.268 171.424 510.383 170.517 509.743 169.344C509.124 168.149 508.815 166.752 508.815 165.152V164.32ZM531.978 173.024C530.25 173.024 528.938 172.586 528.042 171.712C527.168 170.837 526.73 169.77 526.73 168.512C526.73 167.573 526.933 166.816 527.338 166.24C527.744 165.664 528.277 165.216 528.938 164.896C529.621 164.554 530.368 164.288 531.178 164.096L537.386 162.656V164.608L531.722 166.144C531.125 166.293 530.624 166.528 530.218 166.848C529.834 167.168 529.642 167.669 529.642 168.352C529.642 169.141 529.93 169.77 530.506 170.24C531.082 170.688 531.829 170.912 532.746 170.912C533.984 170.912 535.008 170.538 535.818 169.792C536.629 169.045 537.034 168.074 537.034 166.88V161.664C537.034 160.661 536.714 159.882 536.074 159.328C535.456 158.773 534.581 158.496 533.45 158.496C532.341 158.496 531.466 158.752 530.826 159.264C530.186 159.776 529.813 160.501 529.706 161.44H526.826C526.997 159.861 527.701 158.602 528.938 157.664C530.176 156.725 531.744 156.256 533.642 156.256C535.605 156.256 537.141 156.746 538.25 157.728C539.36 158.709 539.914 159.989 539.914 161.568V172.64H537.226V168.8L537.642 169.248C537.237 170.421 536.554 171.349 535.594 172.032C534.656 172.693 533.45 173.024 531.978 173.024ZM568.356 165.152C568.356 166.752 568.036 168.149 567.396 169.344C566.756 170.517 565.892 171.424 564.804 172.064C563.737 172.704 562.543 173.024 561.22 173.024C560.153 173.024 559.183 172.832 558.308 172.448C557.433 172.042 556.687 171.466 556.068 170.72C555.471 169.973 555.044 169.077 554.788 168.032L555.78 168.8V178.4H552.9V156.64H555.652V160.48L554.788 161.248C555.236 159.669 556.036 158.442 557.188 157.568C558.361 156.693 559.727 156.256 561.284 156.256C562.628 156.256 563.833 156.576 564.9 157.216C565.967 157.856 566.809 158.762 567.428 159.936C568.047 161.109 568.356 162.506 568.356 164.128V165.152ZM560.74 170.72C562.191 170.72 563.332 170.218 564.164 169.216C565.017 168.213 565.444 166.858 565.444 165.152V164.128C565.444 162.421 565.017 161.066 564.164 160.064C563.311 159.061 562.159 158.56 560.708 158.56C559.279 158.56 558.095 159.05 557.156 160.032C556.239 160.992 555.78 162.25 555.78 163.808V165.472C555.78 166.496 556.004 167.402 556.452 168.192C556.9 168.981 557.497 169.6 558.244 170.048C558.991 170.496 559.823 170.72 560.74 170.72ZM576.947 173.024C575.219 173.024 573.907 172.586 573.011 171.712C572.136 170.837 571.699 169.77 571.699 168.512C571.699 167.573 571.902 166.816 572.307 166.24C572.712 165.664 573.246 165.216 573.907 164.896C574.59 164.554 575.336 164.288 576.147 164.096L582.355 162.656V164.608L576.691 166.144C576.094 166.293 575.592 166.528 575.187 166.848C574.803 167.168 574.611 167.669 574.611 168.352C574.611 169.141 574.899 169.77 575.475 170.24C576.051 170.688 576.798 170.912 577.715 170.912C578.952 170.912 579.976 170.538 580.787 169.792C581.598 169.045 582.003 168.074 582.003 166.88V161.664C582.003 160.661 581.683 159.882 581.043 159.328C580.424 158.773 579.55 158.496 578.419 158.496C577.31 158.496 576.435 158.752 575.795 159.264C575.155 159.776 574.782 160.501 574.675 161.44H571.795C571.966 159.861 572.67 158.602 573.907 157.664C575.144 156.725 576.712 156.256 578.611 156.256C580.574 156.256 582.11 156.746 583.219 157.728C584.328 158.709 584.883 159.989 584.883 161.568V172.64H582.195V168.8L582.611 169.248C582.206 170.421 581.523 171.349 580.563 172.032C579.624 172.693 578.419 173.024 576.947 173.024ZM589.556 172.64V156.64H592.308V160.576H591.956C592.234 159.274 592.746 158.261 593.492 157.536C594.26 156.81 595.402 156.448 596.916 156.448H598.196V158.944H596.916C595.359 158.944 594.218 159.328 593.492 160.096C592.788 160.864 592.436 162.101 592.436 163.808V172.64H589.556ZM605.103 173.024C603.375 173.024 602.063 172.586 601.167 171.712C600.293 170.837 599.855 169.77 599.855 168.512C599.855 167.573 600.058 166.816 600.463 166.24C600.869 165.664 601.402 165.216 602.063 164.896C602.746 164.554 603.493 164.288 604.303 164.096L610.511 162.656V164.608L604.847 166.144C604.25 166.293 603.749 166.528 603.343 166.848C602.959 167.168 602.767 167.669 602.767 168.352C602.767 169.141 603.055 169.77 603.631 170.24C604.207 170.688 604.954 170.912 605.871 170.912C607.109 170.912 608.133 170.538 608.943 169.792C609.754 169.045 610.159 168.074 610.159 166.88V161.664C610.159 160.661 609.839 159.882 609.199 159.328C608.581 158.773 607.706 158.496 606.575 158.496C605.466 158.496 604.591 158.752 603.951 159.264C603.311 159.776 602.938 160.501 602.831 161.44H599.951C600.122 159.861 600.826 158.602 602.063 157.664C603.301 156.725 604.869 156.256 606.767 156.256C608.73 156.256 610.266 156.746 611.375 157.728C612.485 158.709 613.039 159.989 613.039 161.568V172.64H610.351V168.8L610.767 169.248C610.362 170.421 609.679 171.349 608.719 172.032C607.781 172.693 606.575 173.024 605.103 173.024ZM626.025 172.64V156.64H628.777V159.84H628.425C628.958 158.688 629.694 157.802 630.633 157.184C631.572 156.565 632.67 156.256 633.929 156.256C635.017 156.256 635.998 156.49 636.873 156.96C637.748 157.429 638.441 158.133 638.953 159.072C639.486 160.01 639.753 161.205 639.753 162.656V172.64H636.873V162.912C636.873 161.568 636.542 160.512 635.881 159.744C635.22 158.954 634.324 158.56 633.193 158.56C631.934 158.56 630.9 159.04 630.089 160C629.3 160.938 628.905 162.133 628.905 163.584V172.64H626.025ZM643.471 164.32C643.471 162.677 643.791 161.258 644.431 160.064C645.071 158.848 645.967 157.909 647.119 157.248C648.271 156.586 649.594 156.256 651.087 156.256C652.538 156.256 653.807 156.565 654.895 157.184C655.983 157.802 656.826 158.698 657.423 159.872C658.021 161.024 658.319 162.4 658.319 164V165.088H645.711V162.912H655.983L655.439 163.552C655.439 161.994 655.034 160.768 654.223 159.872C653.434 158.954 652.346 158.496 650.959 158.496C649.573 158.496 648.463 158.965 647.631 159.904C646.799 160.821 646.383 162.08 646.383 163.68V165.312C646.383 166.997 646.831 168.33 647.727 169.312C648.645 170.293 649.797 170.784 651.183 170.784C652.314 170.784 653.199 170.528 653.839 170.016C654.501 169.504 654.938 168.896 655.151 168.192H658.031C657.69 169.621 656.922 170.784 655.727 171.68C654.533 172.576 653.018 173.024 651.183 173.024C649.626 173.024 648.261 172.693 647.087 172.032C645.935 171.37 645.039 170.453 644.399 169.28C643.781 168.085 643.471 166.688 643.471 165.088V164.32ZM669.306 178.72C664.954 178.72 662.554 177.184 662.106 174.112H665.05C665.221 174.965 665.647 175.584 666.33 175.968C667.034 176.352 668.026 176.544 669.306 176.544H669.978C671.429 176.544 672.517 176.224 673.242 175.584C673.967 174.965 674.33 174.037 674.33 172.8V168.48L675.258 167.52C674.81 169.056 674.01 170.25 672.858 171.104C671.706 171.957 670.341 172.384 668.762 172.384C667.439 172.384 666.234 172.074 665.146 171.456C664.079 170.816 663.237 169.92 662.618 168.768C661.999 167.616 661.69 166.25 661.69 164.672V163.968C661.69 162.389 662.01 161.024 662.65 159.872C663.29 158.72 664.143 157.834 665.21 157.216C666.298 156.576 667.503 156.256 668.826 156.256C670.426 156.256 671.802 156.682 672.954 157.536C674.106 158.389 674.874 159.584 675.258 161.12L674.394 160.16V156.64H677.146V172.8C677.146 174.826 676.527 176.32 675.29 177.28C674.074 178.24 672.303 178.72 669.978 178.72H669.306ZM669.338 170.144C670.789 170.144 671.973 169.664 672.89 168.704C673.807 167.744 674.266 166.506 674.266 164.992V163.648C674.266 162.645 674.042 161.76 673.594 160.992C673.167 160.224 672.581 159.626 671.834 159.2C671.087 158.773 670.245 158.56 669.306 158.56C667.877 158.56 666.735 159.05 665.882 160.032C665.029 160.992 664.602 162.304 664.602 163.968V164.672C664.602 166.357 665.029 167.69 665.882 168.672C666.757 169.653 667.909 170.144 669.338 170.144ZM683.883 165.088C683.883 166.922 684.331 168.32 685.227 169.28C686.123 170.24 687.286 170.72 688.715 170.72C690.166 170.72 691.329 170.24 692.203 169.28C693.099 168.32 693.547 166.965 693.547 165.216V164.32C693.547 162.485 693.099 161.066 692.203 160.064C691.307 159.061 690.145 158.56 688.715 158.56C687.286 158.56 686.123 159.061 685.227 160.064C684.331 161.045 683.883 162.421 683.883 164.192V165.088ZM696.459 165.088C696.459 166.709 696.129 168.117 695.467 169.312C694.827 170.506 693.921 171.424 692.747 172.064C691.595 172.704 690.251 173.024 688.715 173.024C687.179 173.024 685.825 172.704 684.651 172.064C683.499 171.424 682.593 170.517 681.931 169.344C681.291 168.17 680.971 166.794 680.971 165.216V164.32C680.971 162.677 681.302 161.258 681.963 160.064C682.625 158.848 683.531 157.909 684.683 157.248C685.857 156.586 687.201 156.256 688.715 156.256C690.251 156.256 691.595 156.586 692.747 157.248C693.921 157.888 694.827 158.805 695.467 160C696.129 161.194 696.459 162.592 696.459 164.192V165.088ZM689.515 154.4H687.147L689.643 149.728H693.035L689.515 154.4ZM699.878 164.32C699.878 162.656 700.208 161.226 700.87 160.032C701.552 158.816 702.48 157.888 703.654 157.248C704.848 156.586 706.192 156.256 707.686 156.256C709.115 156.256 710.31 156.522 711.27 157.056C712.23 157.568 712.966 158.229 713.478 159.04C713.99 159.829 714.288 160.64 714.374 161.472H711.43C711.28 160.725 710.896 160.053 710.278 159.456C709.659 158.858 708.742 158.56 707.526 158.56C706.096 158.56 704.944 159.04 704.07 160C703.216 160.96 702.79 162.336 702.79 164.128V165.152C702.79 166.901 703.227 168.266 704.102 169.248C704.998 170.229 706.16 170.72 707.59 170.72C708.784 170.72 709.702 170.41 710.342 169.792C711.003 169.152 711.408 168.405 711.558 167.552H714.438C714.352 168.469 714.032 169.354 713.478 170.208C712.944 171.04 712.176 171.722 711.174 172.256C710.171 172.768 708.934 173.024 707.462 173.024C705.947 173.024 704.614 172.704 703.462 172.064C702.331 171.424 701.446 170.517 700.806 169.344C700.187 168.149 699.878 166.752 699.878 165.152V164.32ZM718.369 172.64V156.64H721.249V172.64H718.369ZM718.113 153.824V150.496H721.505V153.824H718.113ZM728.008 165.088C728.008 166.922 728.456 168.32 729.352 169.28C730.248 170.24 731.411 170.72 732.84 170.72C734.291 170.72 735.454 170.24 736.328 169.28C737.224 168.32 737.672 166.965 737.672 165.216V164.32C737.672 162.485 737.224 161.066 736.328 160.064C735.432 159.061 734.27 158.56 732.84 158.56C731.411 158.56 730.248 159.061 729.352 160.064C728.456 161.045 728.008 162.421 728.008 164.192V165.088ZM740.584 165.088C740.584 166.709 740.254 168.117 739.592 169.312C738.952 170.506 738.046 171.424 736.872 172.064C735.72 172.704 734.376 173.024 732.84 173.024C731.304 173.024 729.95 172.704 728.776 172.064C727.624 171.424 726.718 170.517 726.056 169.344C725.416 168.17 725.096 166.794 725.096 165.216V164.32C725.096 162.677 725.427 161.258 726.088 160.064C726.75 158.848 727.656 157.909 728.808 157.248C729.982 156.586 731.326 156.256 732.84 156.256C734.376 156.256 735.72 156.586 736.872 157.248C738.046 157.888 738.952 158.805 739.592 160C740.254 161.194 740.584 162.592 740.584 164.192V165.088ZM750.411 173.024C748.982 173.024 747.788 172.8 746.828 172.352C745.868 171.882 745.142 171.264 744.652 170.496C744.161 169.706 743.884 168.842 743.82 167.904H746.668C746.753 168.693 747.105 169.386 747.724 169.984C748.342 170.56 749.313 170.848 750.635 170.848C751.702 170.848 752.556 170.645 753.196 170.24C753.836 169.813 754.156 169.205 754.156 168.416C754.156 167.776 753.942 167.285 753.516 166.944C753.11 166.581 752.577 166.325 751.916 166.176L748.332 165.312C747.137 165.013 746.145 164.554 745.356 163.936C744.588 163.296 744.204 162.368 744.204 161.152C744.204 160.149 744.481 159.285 745.036 158.56C745.59 157.834 746.358 157.269 747.34 156.864C748.321 156.458 749.441 156.256 750.7 156.256C752.108 156.256 753.26 156.49 754.156 156.96C755.073 157.408 755.756 158.005 756.204 158.752C756.673 159.498 756.929 160.288 756.972 161.12H754.252C754.166 160.437 753.836 159.818 753.26 159.264C752.705 158.709 751.788 158.432 750.508 158.432C749.462 158.432 748.62 158.645 747.98 159.072C747.34 159.498 747.02 160.096 747.02 160.864C747.02 161.461 747.222 161.898 747.628 162.176C748.054 162.453 748.588 162.677 749.228 162.848L752.812 163.712C754.07 164.01 755.073 164.501 755.82 165.184C756.588 165.866 756.972 166.848 756.972 168.128C756.972 169.173 756.694 170.058 756.14 170.784C755.585 171.509 754.817 172.064 753.836 172.448C752.854 172.832 751.713 173.024 750.411 173.024Z" fill="white"/>
</svg>
