<svg width="1200" height="1200" viewBox="0 0 1200 1200" fill="none" xmlns="http://www.w3.org/2000/svg">
<rect width="1200" height="1200" fill="#EAEAEA"/>
<path d="M308.497 686.376C303.692 691.186 295.877 691.211 291.041 686.431C286.206 681.652 286.181 673.877 290.986 669.067L395.385 564.551C400.19 559.741 408.005 559.716 412.841 564.496C417.676 569.276 417.701 577.05 412.896 581.86L308.497 686.376Z" fill="#ED4B4B"/>
<path d="M273.531 669.122C268.726 673.932 260.911 673.957 256.075 669.177C251.24 664.398 251.215 656.623 256.02 651.813L286.47 621.329C291.275 616.519 299.09 616.494 303.925 621.274C308.761 626.054 308.785 633.828 303.981 638.638L273.531 669.122Z" fill="#ED4B4B"/>
<path d="M330.08 612.509C325.276 617.32 317.461 617.344 312.625 612.564C307.79 607.785 307.765 600.011 312.57 595.2L373.469 534.233C378.274 529.422 386.089 529.398 390.925 534.177C395.76 538.957 395.785 546.731 390.98 551.542L330.08 612.509Z" fill="#ED4B4B"/>
<path d="M277.714 612.675C272.91 617.485 265.095 617.51 260.259 612.73C255.424 607.95 255.399 600.176 260.204 595.366L342.853 512.624C347.658 507.814 355.473 507.789 360.308 512.569C365.144 517.348 365.169 525.123 360.364 529.933L277.714 612.675Z" fill="#ED4B4B"/>
<path d="M247.098 591.066C242.293 595.876 234.478 595.901 229.643 591.121C224.807 586.341 224.783 578.567 229.587 573.757L264.387 538.918C269.192 534.108 277.007 534.083 281.843 538.863C286.678 543.643 286.703 551.417 281.898 556.227L247.098 591.066Z" fill="#ED4B4B"/>
<path d="M395.663 651.372C390.858 656.182 383.043 656.207 378.207 651.427C373.372 646.647 373.347 638.873 378.152 634.063L399.902 612.289C404.707 607.479 412.522 607.454 417.357 612.234C422.193 617.013 422.217 624.788 417.413 629.598L395.663 651.372Z" fill="#ED4B4B"/>
<path d="M360.863 686.211C356.058 691.021 348.243 691.046 343.408 686.266C338.572 681.486 338.547 673.712 343.352 668.902C348.157 664.091 355.972 664.067 360.807 668.846C365.643 673.626 365.668 681.4 360.863 686.211Z" fill="#0F1112"/>
<path d="M255.964 634.449C251.16 639.259 243.345 639.284 238.509 634.504C233.674 629.724 233.649 621.95 238.454 617.14C243.259 612.33 251.074 612.305 255.909 617.085C260.745 621.865 260.769 629.639 255.964 634.449Z" fill="#0F1112"/>
<path d="M307.998 530.098C303.193 534.909 295.378 534.933 290.543 530.154C285.707 525.374 285.682 517.6 290.487 512.789C295.292 507.979 303.107 507.954 307.942 512.734C312.778 517.514 312.803 525.288 307.998 530.098Z" fill="#0F1112"/>
<path d="M916.329 605.231C916.329 612.905 918.1 618.612 921.642 622.35C925.282 625.991 929.906 627.811 935.514 627.811C941.221 627.811 945.845 625.991 949.387 622.35C953.027 618.612 954.847 613.102 954.847 605.821V601.689C954.847 593.916 953.027 588.112 949.387 584.274C945.747 580.339 941.122 578.371 935.514 578.371C929.906 578.371 925.282 580.29 921.642 584.127C918.1 587.964 916.329 593.621 916.329 601.099V605.231ZM973 605.231C973 613.004 971.377 619.645 968.13 625.155C964.981 630.664 960.603 634.895 954.995 637.847C949.387 640.7 942.893 642.126 935.514 642.126C928.234 642.126 921.789 640.7 916.181 637.847C910.573 634.895 906.146 630.713 902.899 625.302C899.75 619.792 898.176 613.299 898.176 605.821V601.689C898.176 593.818 899.75 587.078 902.899 581.47C906.146 575.862 910.573 571.582 916.181 568.631C921.888 565.679 928.332 564.203 935.514 564.203C942.893 564.203 949.387 565.679 954.995 568.631C960.603 571.582 964.981 575.813 968.13 581.323C971.377 586.833 973 593.424 973 601.099V605.231Z" fill="#0F1112"/>
<path d="M853.115 640.355V565.974H870.087V584.717H868.463C869.742 578.519 872.103 573.698 875.547 570.254C879.089 566.811 884.451 565.089 891.633 565.089H896.946V580.585H890.896C883.91 580.585 878.843 582.257 875.695 585.603C872.546 588.948 870.972 594.064 870.972 600.951V640.355H853.115Z" fill="#0F1112"/>
<path d="M768.354 640.355V540H811.3C822.516 540 831.273 542.804 837.569 548.412C843.866 553.922 847.015 561.252 847.015 570.402V571.878C847.015 578.174 845.539 583.684 842.587 588.407C839.734 593.031 835.602 596.622 830.19 599.18C824.779 601.738 818.285 603.017 810.71 603.017H786.654V640.355H768.354ZM786.654 588.407H809.972C815.875 588.407 820.401 587.078 823.549 584.422C826.698 581.667 828.272 577.682 828.272 572.468V570.992C828.272 565.778 826.55 561.744 823.106 558.89C819.663 556.037 814.596 554.611 807.906 554.611H786.654V588.407Z" fill="#0F1112"/>
<path d="M666.67 640.355C661.16 640.355 656.88 639.617 653.83 638.142C650.78 636.666 648.616 634.551 647.337 631.796C646.058 628.942 645.418 625.45 645.418 621.317V547.822L663.276 544.575V618.661C663.276 622.006 663.817 624.269 664.899 625.45C666.08 626.532 668.293 627.073 671.54 627.073H680.69V640.355H666.67ZM631.25 579.257V565.974H681.576V579.257H631.25Z" fill="#0F1112"/>
<path d="M586.386 642.126C578.318 642.126 572.169 640.109 567.938 636.076C563.707 632.042 561.592 626.925 561.592 620.727C561.592 616.3 562.625 612.708 564.691 609.954C566.757 607.1 569.414 604.837 572.661 603.165C576.006 601.492 579.597 600.262 583.434 599.475L613.098 592.982V603.903L588.599 610.249C585.943 610.839 583.778 611.872 582.106 613.348C580.433 614.725 579.597 616.792 579.597 619.546C579.597 622.793 580.778 625.351 583.139 627.221C585.5 628.992 588.501 629.877 592.141 629.877C597.061 629.877 601.095 628.45 604.243 625.597C607.391 622.646 608.966 618.809 608.966 614.086V590.325C608.966 586.193 607.736 583.045 605.276 580.88C602.915 578.617 599.471 577.486 594.945 577.486C590.616 577.486 587.173 578.47 584.615 580.437C582.057 582.405 580.581 585.357 580.187 589.292H562.478C563.068 581.421 566.364 575.272 572.365 570.845C578.466 566.417 586.287 564.203 595.831 564.203C605.866 564.203 613.541 566.565 618.854 571.287C624.167 576.01 626.823 582.454 626.823 590.62V640.355H610.146V622.646L612.36 624.121C610.884 629.73 607.933 634.157 603.505 637.404C599.078 640.552 593.371 642.126 586.386 642.126Z" fill="#0F1112"/>
<path d="M715.52 642.126C707.452 642.126 701.303 640.109 697.072 636.076C692.841 632.042 690.726 626.925 690.726 620.727C690.726 616.3 691.759 612.708 693.825 609.954C695.891 607.1 698.548 604.837 701.794 603.165C705.14 601.492 708.731 600.262 712.568 599.475L742.232 592.982V603.903L717.733 610.249C715.077 610.839 712.912 611.872 711.24 613.348C709.567 614.725 708.731 616.792 708.731 619.546C708.731 622.793 709.911 625.351 712.273 627.221C714.634 628.992 717.635 629.877 721.275 629.877C726.195 629.877 730.228 628.45 733.377 625.597C736.525 622.646 738.099 618.809 738.099 614.086V590.325C738.099 586.193 736.87 583.045 734.41 580.88C732.049 578.617 728.605 577.486 724.079 577.486C719.75 577.486 716.307 578.47 713.749 580.437C711.19 582.405 709.715 585.357 709.321 589.292H691.611C692.202 581.421 695.498 575.272 701.499 570.845C707.599 566.417 715.421 564.203 724.965 564.203C735 564.203 742.675 566.565 747.987 571.287C753.3 576.01 755.957 582.454 755.957 590.62V640.355H739.28V622.646L741.494 624.121C740.018 629.73 737.066 634.157 732.639 637.404C728.212 640.552 722.505 642.126 715.52 642.126Z" fill="#0F1112"/>
<path d="M554.115 591.801C554.115 602.427 551.753 611.38 547.031 618.661C542.406 625.843 536.11 631.255 528.14 634.895C520.171 638.535 511.267 640.355 501.428 640.355H467.042V540H501.428C511.365 540 520.269 541.82 528.14 545.461C536.11 549.002 542.406 554.365 547.031 561.547C551.753 568.631 554.115 577.436 554.115 587.964V591.801ZM485.194 625.45H500.69C507.676 625.45 513.776 624.171 518.99 621.613C524.205 618.956 528.189 615.168 530.944 610.249C533.798 605.329 535.224 599.377 535.224 592.391V588.554C535.224 581.372 533.798 575.272 530.944 570.254C528.091 565.236 524.057 561.449 518.843 558.89C513.628 556.234 507.577 554.906 500.69 554.906H485.194V625.45Z" fill="#0F1112"/>
<path d="M469.56 681.64V659.88H473.016V681.64H469.56ZM477.614 681.64V665.576H480.814V668.84H480.462C480.953 667.688 481.668 666.792 482.606 666.152C483.545 665.512 484.654 665.192 485.934 665.192C487.022 665.192 488.004 665.426 488.878 665.896C489.753 666.344 490.446 667.037 490.958 667.976C491.492 668.914 491.758 670.098 491.758 671.528V681.64H488.398V671.912C488.398 670.653 488.078 669.672 487.438 668.968C486.82 668.242 485.988 667.88 484.942 667.88C483.748 667.88 482.788 668.317 482.062 669.192C481.337 670.066 480.974 671.197 480.974 672.584V681.64H477.614ZM501.313 681.64C500.268 681.64 499.447 681.49 498.849 681.192C498.252 680.893 497.815 680.456 497.537 679.88C497.281 679.304 497.153 678.578 497.153 677.704V661.608L500.513 660.936V677.32C500.513 678.002 500.62 678.472 500.833 678.728C501.068 678.984 501.516 679.112 502.177 679.112H504.417V681.64H501.313ZM493.953 668.104V665.576H504.609V668.104H493.953ZM506.655 673.288C506.655 671.624 506.986 670.184 507.647 668.968C508.308 667.752 509.226 666.824 510.399 666.184C511.572 665.522 512.916 665.192 514.431 665.192C515.924 665.192 517.226 665.501 518.335 666.12C519.466 666.738 520.34 667.634 520.959 668.808C521.578 669.981 521.887 671.4 521.887 673.064V674.216H509.055V671.816H519.071L518.527 672.392C518.527 670.92 518.143 669.778 517.375 668.968C516.628 668.136 515.604 667.72 514.303 667.72C513.023 667.72 511.988 668.146 511.199 669C510.41 669.853 510.015 671.016 510.015 672.488V674.376C510.015 675.954 510.442 677.202 511.295 678.12C512.148 679.016 513.226 679.464 514.527 679.464C515.594 679.464 516.436 679.229 517.055 678.76C517.695 678.29 518.111 677.714 518.303 677.032H521.599C521.279 678.525 520.5 679.73 519.263 680.648C518.026 681.565 516.447 682.024 514.527 682.024C512.927 682.024 511.53 681.704 510.335 681.064C509.162 680.402 508.255 679.474 507.615 678.28C506.975 677.085 506.655 675.677 506.655 674.056V673.288ZM525.302 681.64V659.304H528.662V681.64H525.302ZM533.052 681.64V665.576H536.412V681.64H533.052ZM532.796 662.92V659.336H536.636V662.92H532.796ZM547.586 687.624C543.106 687.624 540.652 686.056 540.226 682.92H543.65C543.799 683.688 544.194 684.253 544.834 684.616C545.495 684.978 546.423 685.16 547.618 685.16H548.258C549.666 685.16 550.7 684.861 551.362 684.264C552.044 683.666 552.386 682.77 552.386 681.576V677.384L553.282 676.424C552.898 677.938 552.151 679.122 551.042 679.976C549.932 680.829 548.567 681.256 546.946 681.256C545.623 681.256 544.418 680.946 543.33 680.328C542.263 679.709 541.42 678.834 540.802 677.704C540.183 676.552 539.874 675.186 539.874 673.608V672.904C539.874 671.304 540.194 669.928 540.834 668.776C541.474 667.624 542.327 666.738 543.394 666.12C544.482 665.501 545.687 665.192 547.01 665.192C548.631 665.192 550.007 665.618 551.138 666.472C552.268 667.325 552.983 668.52 553.282 670.056L552.482 669.128V665.576H555.714V681.576C555.714 683.645 555.074 685.17 553.794 686.152C552.514 687.133 550.668 687.624 548.258 687.624H547.586ZM547.746 678.728C549.09 678.728 550.188 678.28 551.042 677.384C551.916 676.488 552.354 675.314 552.354 673.864V672.648C552.354 671.688 552.14 670.845 551.714 670.12C551.308 669.394 550.754 668.84 550.05 668.456C549.367 668.05 548.588 667.848 547.714 667.848C546.37 667.848 545.292 668.296 544.482 669.192C543.671 670.088 543.266 671.325 543.266 672.904V673.608C543.266 675.208 543.671 676.466 544.482 677.384C545.314 678.28 546.402 678.728 547.746 678.728ZM559.155 673.288C559.155 671.624 559.486 670.184 560.147 668.968C560.808 667.752 561.726 666.824 562.899 666.184C564.072 665.522 565.416 665.192 566.931 665.192C568.424 665.192 569.726 665.501 570.835 666.12C571.966 666.738 572.84 667.634 573.459 668.808C574.078 669.981 574.387 671.4 574.387 673.064V674.216H561.555V671.816H571.571L571.027 672.392C571.027 670.92 570.643 669.778 569.875 668.968C569.128 668.136 568.104 667.72 566.803 667.72C565.523 667.72 564.488 668.146 563.699 669C562.91 669.853 562.515 671.016 562.515 672.488V674.376C562.515 675.954 562.942 677.202 563.795 678.12C564.648 679.016 565.726 679.464 567.027 679.464C568.094 679.464 568.936 679.229 569.555 678.76C570.195 678.29 570.611 677.714 570.803 677.032H574.099C573.779 678.525 573 679.73 571.763 680.648C570.526 681.565 568.947 682.024 567.027 682.024C565.427 682.024 564.03 681.704 562.835 681.064C561.662 680.402 560.755 679.474 560.115 678.28C559.475 677.085 559.155 675.677 559.155 674.056V673.288ZM561.747 663.592L565.235 658.856H568.627L572.115 663.592H569.395L566.931 660.808L564.467 663.592H561.747ZM577.802 681.64V665.576H581.002V668.84H580.65C581.14 667.688 581.855 666.792 582.794 666.152C583.732 665.512 584.842 665.192 586.122 665.192C587.21 665.192 588.191 665.426 589.066 665.896C589.94 666.344 590.634 667.037 591.146 667.976C591.679 668.914 591.946 670.098 591.946 671.528V681.64H588.586V671.912C588.586 670.653 588.266 669.672 587.626 668.968C587.007 668.242 586.175 667.88 585.13 667.88C583.935 667.88 582.975 668.317 582.25 669.192C581.524 670.066 581.162 671.197 581.162 672.584V681.64H577.802ZM595.28 673.288C595.28 671.581 595.621 670.13 596.304 668.936C596.987 667.72 597.925 666.792 599.12 666.152C600.336 665.512 601.701 665.192 603.216 665.192C604.709 665.192 605.947 665.458 606.928 665.992C607.931 666.525 608.688 667.218 609.2 668.072C609.733 668.904 610.043 669.768 610.128 670.664H606.736C606.587 669.917 606.224 669.266 605.648 668.712C605.072 668.157 604.219 667.88 603.088 667.88C601.765 667.88 600.699 668.328 599.888 669.224C599.077 670.098 598.672 671.389 598.672 673.096V674.12C598.672 675.784 599.088 677.074 599.92 677.992C600.752 678.888 601.829 679.336 603.152 679.336C604.261 679.336 605.115 679.048 605.712 678.472C606.331 677.874 606.715 677.149 606.864 676.296H610.192C610.107 677.298 609.776 678.237 609.2 679.112C608.645 679.986 607.845 680.69 606.8 681.224C605.776 681.757 604.507 682.024 602.992 682.024C601.456 682.024 600.101 681.714 598.928 681.096C597.776 680.456 596.88 679.538 596.24 678.344C595.6 677.149 595.28 675.741 595.28 674.12V673.288ZM613.739 681.64V665.576H617.099V681.64H613.739ZM613.483 662.92V659.336H617.323V662.92H613.483ZM626.225 682.024C624.497 682.024 623.175 681.586 622.257 680.712C621.361 679.837 620.913 678.749 620.913 677.448C620.913 676.488 621.127 675.72 621.553 675.144C621.98 674.546 622.535 674.077 623.217 673.736C623.921 673.394 624.689 673.128 625.521 672.936L631.825 671.528V673.672L626.321 675.112C625.745 675.261 625.265 675.496 624.881 675.816C624.497 676.136 624.305 676.616 624.305 677.256C624.305 678.002 624.572 678.589 625.105 679.016C625.66 679.442 626.364 679.656 627.217 679.656C628.369 679.656 629.319 679.314 630.065 678.632C630.833 677.928 631.217 677.021 631.217 675.912V670.728C631.217 669.789 630.919 669.064 630.321 668.552C629.745 668.018 628.935 667.752 627.889 667.752C626.865 667.752 626.055 667.986 625.457 668.456C624.86 668.925 624.508 669.608 624.401 670.504H621.073C621.223 668.861 621.927 667.57 623.185 666.632C624.465 665.672 626.097 665.192 628.081 665.192C630.151 665.192 631.751 665.693 632.881 666.696C634.012 667.698 634.577 669.032 634.577 670.696V681.64H631.441V677.8L631.889 678.184C631.505 679.378 630.833 680.317 629.873 681C628.935 681.682 627.719 682.024 626.225 682.024Z" fill="#ED4B4B"/>
<path d="M652.01 682.024C650.282 682.024 648.97 681.586 648.074 680.712C647.199 679.837 646.762 678.77 646.762 677.512C646.762 676.573 646.964 675.816 647.37 675.24C647.775 674.664 648.308 674.216 648.97 673.896C649.652 673.554 650.399 673.288 651.21 673.096L657.418 671.656V673.608L651.754 675.144C651.156 675.293 650.655 675.528 650.25 675.848C649.866 676.168 649.674 676.669 649.674 677.352C649.674 678.141 649.962 678.77 650.538 679.24C651.114 679.688 651.86 679.912 652.778 679.912C654.015 679.912 655.039 679.538 655.85 678.792C656.66 678.045 657.066 677.074 657.066 675.88V670.664C657.066 669.661 656.746 668.882 656.106 668.328C655.487 667.773 654.612 667.496 653.482 667.496C652.372 667.496 651.498 667.752 650.858 668.264C650.218 668.776 649.844 669.501 649.738 670.44H646.858C647.028 668.861 647.732 667.602 648.97 666.664C650.207 665.725 651.775 665.256 653.674 665.256C655.636 665.256 657.172 665.746 658.282 666.728C659.391 667.709 659.946 668.989 659.946 670.568V681.64H657.258V677.8L657.674 678.248C657.268 679.421 656.586 680.349 655.626 681.032C654.687 681.693 653.482 682.024 652.01 682.024ZM664.619 681.64V665.64H667.371V668.84H667.019C667.552 667.688 668.288 666.802 669.227 666.184C670.165 665.565 671.264 665.256 672.523 665.256C673.611 665.256 674.592 665.49 675.467 665.96C676.341 666.429 677.035 667.133 677.547 668.072C678.08 669.01 678.347 670.205 678.347 671.656V681.64H675.467V671.912C675.467 670.568 675.136 669.512 674.475 668.744C673.813 667.954 672.917 667.56 671.787 667.56C670.528 667.56 669.493 668.04 668.683 669C667.893 669.938 667.499 671.133 667.499 672.584V681.64H664.619ZM687.697 682.024C685.969 682.024 684.657 681.586 683.761 680.712C682.886 679.837 682.449 678.77 682.449 677.512C682.449 676.573 682.652 675.816 683.057 675.24C683.462 674.664 683.996 674.216 684.657 673.896C685.34 673.554 686.086 673.288 686.897 673.096L693.105 671.656V673.608L687.441 675.144C686.844 675.293 686.342 675.528 685.937 675.848C685.553 676.168 685.361 676.669 685.361 677.352C685.361 678.141 685.649 678.77 686.225 679.24C686.801 679.688 687.548 679.912 688.465 679.912C689.702 679.912 690.726 679.538 691.537 678.792C692.348 678.045 692.753 677.074 692.753 675.88V670.664C692.753 669.661 692.433 668.882 691.793 668.328C691.174 667.773 690.3 667.496 689.169 667.496C688.06 667.496 687.185 667.752 686.545 668.264C685.905 668.776 685.532 669.501 685.425 670.44H682.545C682.716 668.861 683.42 667.602 684.657 666.664C685.894 665.725 687.462 665.256 689.361 665.256C691.324 665.256 692.86 665.746 693.969 666.728C695.078 667.709 695.633 668.989 695.633 670.568V681.64H692.945V677.8L693.361 678.248C692.956 679.421 692.273 680.349 691.313 681.032C690.374 681.693 689.169 682.024 687.697 682.024ZM700.306 681.64V659.24H703.186V681.64H700.306ZM707.994 681.64V665.64H710.874V681.64H707.994ZM710.234 663.4H707.866L710.362 658.728H713.754L710.234 663.4ZM721.121 681.64C720.225 681.64 719.5 681.501 718.945 681.224C718.412 680.946 718.017 680.53 717.761 679.976C717.505 679.421 717.377 678.717 717.377 677.864V661.64L720.257 661V677.672C720.257 678.333 720.364 678.802 720.577 679.08C720.791 679.336 721.196 679.464 721.793 679.464H724.289V681.64H721.121ZM714.081 667.816V665.64H724.481V667.816H714.081ZM728.088 681.64V665.64H730.968V681.64H728.088ZM727.832 662.824V659.496H731.224V662.824H727.832ZM734.815 673.32C734.815 671.656 735.146 670.226 735.807 669.032C736.49 667.816 737.418 666.888 738.591 666.248C739.786 665.586 741.13 665.256 742.623 665.256C744.052 665.256 745.247 665.522 746.207 666.056C747.167 666.568 747.903 667.229 748.415 668.04C748.927 668.829 749.226 669.64 749.311 670.472H746.367C746.218 669.725 745.834 669.053 745.215 668.456C744.596 667.858 743.679 667.56 742.463 667.56C741.034 667.56 739.882 668.04 739.007 669C738.154 669.96 737.727 671.336 737.727 673.128V674.152C737.727 675.901 738.164 677.266 739.039 678.248C739.935 679.229 741.098 679.72 742.527 679.72C743.722 679.72 744.639 679.41 745.279 678.792C745.94 678.152 746.346 677.405 746.495 676.552H749.375C749.29 677.469 748.97 678.354 748.415 679.208C747.882 680.04 747.114 680.722 746.111 681.256C745.108 681.768 743.871 682.024 742.399 682.024C740.884 682.024 739.551 681.704 738.399 681.064C737.268 680.424 736.383 679.517 735.743 678.344C735.124 677.149 734.815 675.752 734.815 674.152V673.32ZM757.978 682.024C756.25 682.024 754.938 681.586 754.042 680.712C753.168 679.837 752.73 678.77 752.73 677.512C752.73 676.573 752.933 675.816 753.338 675.24C753.744 674.664 754.277 674.216 754.938 673.896C755.621 673.554 756.368 673.288 757.178 673.096L763.386 671.656V673.608L757.722 675.144C757.125 675.293 756.624 675.528 756.218 675.848C755.834 676.168 755.642 676.669 755.642 677.352C755.642 678.141 755.93 678.77 756.506 679.24C757.082 679.688 757.829 679.912 758.746 679.912C759.984 679.912 761.008 679.538 761.818 678.792C762.629 678.045 763.034 677.074 763.034 675.88V670.664C763.034 669.661 762.714 668.882 762.074 668.328C761.456 667.773 760.581 667.496 759.45 667.496C758.341 667.496 757.466 667.752 756.826 668.264C756.186 668.776 755.813 669.501 755.706 670.44H752.826C752.997 668.861 753.701 667.602 754.938 666.664C756.176 665.725 757.744 665.256 759.642 665.256C761.605 665.256 763.141 665.746 764.25 666.728C765.36 667.709 765.914 668.989 765.914 670.568V681.64H763.226V677.8L763.642 678.248C763.237 679.421 762.554 680.349 761.594 681.032C760.656 681.693 759.45 682.024 757.978 682.024ZM794.356 674.152C794.356 675.752 794.036 677.149 793.396 678.344C792.756 679.517 791.892 680.424 790.804 681.064C789.737 681.704 788.543 682.024 787.22 682.024C786.153 682.024 785.183 681.832 784.308 681.448C783.433 681.042 782.687 680.466 782.068 679.72C781.471 678.973 781.044 678.077 780.788 677.032L781.78 677.8V687.4H778.9V665.64H781.652V669.48L780.788 670.248C781.236 668.669 782.036 667.442 783.188 666.568C784.361 665.693 785.727 665.256 787.284 665.256C788.628 665.256 789.833 665.576 790.9 666.216C791.967 666.856 792.809 667.762 793.428 668.936C794.047 670.109 794.356 671.506 794.356 673.128V674.152ZM786.74 679.72C788.191 679.72 789.332 679.218 790.164 678.216C791.017 677.213 791.444 675.858 791.444 674.152V673.128C791.444 671.421 791.017 670.066 790.164 669.064C789.311 668.061 788.159 667.56 786.708 667.56C785.279 667.56 784.095 668.05 783.156 669.032C782.239 669.992 781.78 671.25 781.78 672.808V674.472C781.78 675.496 782.004 676.402 782.452 677.192C782.9 677.981 783.497 678.6 784.244 679.048C784.991 679.496 785.823 679.72 786.74 679.72ZM802.947 682.024C801.219 682.024 799.907 681.586 799.011 680.712C798.136 679.837 797.699 678.77 797.699 677.512C797.699 676.573 797.902 675.816 798.307 675.24C798.712 674.664 799.246 674.216 799.907 673.896C800.59 673.554 801.336 673.288 802.147 673.096L808.355 671.656V673.608L802.691 675.144C802.094 675.293 801.592 675.528 801.187 675.848C800.803 676.168 800.611 676.669 800.611 677.352C800.611 678.141 800.899 678.77 801.475 679.24C802.051 679.688 802.798 679.912 803.715 679.912C804.952 679.912 805.976 679.538 806.787 678.792C807.598 678.045 808.003 677.074 808.003 675.88V670.664C808.003 669.661 807.683 668.882 807.043 668.328C806.424 667.773 805.55 667.496 804.419 667.496C803.31 667.496 802.435 667.752 801.795 668.264C801.155 668.776 800.782 669.501 800.675 670.44H797.795C797.966 668.861 798.67 667.602 799.907 666.664C801.144 665.725 802.712 665.256 804.611 665.256C806.574 665.256 808.11 665.746 809.219 666.728C810.328 667.709 810.883 668.989 810.883 670.568V681.64H808.195V677.8L808.611 678.248C808.206 679.421 807.523 680.349 806.563 681.032C805.624 681.693 804.419 682.024 802.947 682.024ZM815.556 681.64V665.64H818.308V669.576H817.956C818.234 668.274 818.746 667.261 819.492 666.536C820.26 665.81 821.402 665.448 822.916 665.448H824.196V667.944H822.916C821.359 667.944 820.218 668.328 819.492 669.096C818.788 669.864 818.436 671.101 818.436 672.808V681.64H815.556ZM831.103 682.024C829.375 682.024 828.063 681.586 827.167 680.712C826.293 679.837 825.855 678.77 825.855 677.512C825.855 676.573 826.058 675.816 826.463 675.24C826.869 674.664 827.402 674.216 828.063 673.896C828.746 673.554 829.493 673.288 830.303 673.096L836.511 671.656V673.608L830.847 675.144C830.25 675.293 829.749 675.528 829.343 675.848C828.959 676.168 828.767 676.669 828.767 677.352C828.767 678.141 829.055 678.77 829.631 679.24C830.207 679.688 830.954 679.912 831.871 679.912C833.109 679.912 834.133 679.538 834.943 678.792C835.754 678.045 836.159 677.074 836.159 675.88V670.664C836.159 669.661 835.839 668.882 835.199 668.328C834.581 667.773 833.706 667.496 832.575 667.496C831.466 667.496 830.591 667.752 829.951 668.264C829.311 668.776 828.938 669.501 828.831 670.44H825.951C826.122 668.861 826.826 667.602 828.063 666.664C829.301 665.725 830.869 665.256 832.767 665.256C834.73 665.256 836.266 665.746 837.375 666.728C838.485 667.709 839.039 668.989 839.039 670.568V681.64H836.351V677.8L836.767 678.248C836.362 679.421 835.679 680.349 834.719 681.032C833.781 681.693 832.575 682.024 831.103 682.024ZM852.025 681.64V665.64H854.777V668.84H854.425C854.958 667.688 855.694 666.802 856.633 666.184C857.572 665.565 858.67 665.256 859.929 665.256C861.017 665.256 861.998 665.49 862.873 665.96C863.748 666.429 864.441 667.133 864.953 668.072C865.486 669.01 865.753 670.205 865.753 671.656V681.64H862.873V671.912C862.873 670.568 862.542 669.512 861.881 668.744C861.22 667.954 860.324 667.56 859.193 667.56C857.934 667.56 856.9 668.04 856.089 669C855.3 669.938 854.905 671.133 854.905 672.584V681.64H852.025ZM869.471 673.32C869.471 671.677 869.791 670.258 870.431 669.064C871.071 667.848 871.967 666.909 873.119 666.248C874.271 665.586 875.594 665.256 877.087 665.256C878.538 665.256 879.807 665.565 880.895 666.184C881.983 666.802 882.826 667.698 883.423 668.872C884.021 670.024 884.319 671.4 884.319 673V674.088H871.711V671.912H881.983L881.439 672.552C881.439 670.994 881.034 669.768 880.223 668.872C879.434 667.954 878.346 667.496 876.959 667.496C875.573 667.496 874.463 667.965 873.631 668.904C872.799 669.821 872.383 671.08 872.383 672.68V674.312C872.383 675.997 872.831 677.33 873.727 678.312C874.645 679.293 875.797 679.784 877.183 679.784C878.314 679.784 879.199 679.528 879.839 679.016C880.501 678.504 880.938 677.896 881.151 677.192H884.031C883.69 678.621 882.922 679.784 881.727 680.68C880.533 681.576 879.018 682.024 877.183 682.024C875.626 682.024 874.261 681.693 873.087 681.032C871.935 680.37 871.039 679.453 870.399 678.28C869.781 677.085 869.471 675.688 869.471 674.088V673.32ZM895.306 687.72C890.954 687.72 888.554 686.184 888.106 683.112H891.05C891.221 683.965 891.647 684.584 892.33 684.968C893.034 685.352 894.026 685.544 895.306 685.544H895.978C897.429 685.544 898.517 685.224 899.242 684.584C899.967 683.965 900.33 683.037 900.33 681.8V677.48L901.258 676.52C900.81 678.056 900.01 679.25 898.858 680.104C897.706 680.957 896.341 681.384 894.762 681.384C893.439 681.384 892.234 681.074 891.146 680.456C890.079 679.816 889.237 678.92 888.618 677.768C887.999 676.616 887.69 675.25 887.69 673.672V672.968C887.69 671.389 888.01 670.024 888.65 668.872C889.29 667.72 890.143 666.834 891.21 666.216C892.298 665.576 893.503 665.256 894.826 665.256C896.426 665.256 897.802 665.682 898.954 666.536C900.106 667.389 900.874 668.584 901.258 670.12L900.394 669.16V665.64H903.146V681.8C903.146 683.826 902.527 685.32 901.29 686.28C900.074 687.24 898.303 687.72 895.978 687.72H895.306ZM895.338 679.144C896.789 679.144 897.973 678.664 898.89 677.704C899.807 676.744 900.266 675.506 900.266 673.992V672.648C900.266 671.645 900.042 670.76 899.594 669.992C899.167 669.224 898.581 668.626 897.834 668.2C897.087 667.773 896.245 667.56 895.306 667.56C893.877 667.56 892.735 668.05 891.882 669.032C891.029 669.992 890.602 671.304 890.602 672.968V673.672C890.602 675.357 891.029 676.69 891.882 677.672C892.757 678.653 893.909 679.144 895.338 679.144ZM909.883 674.088C909.883 675.922 910.331 677.32 911.227 678.28C912.123 679.24 913.286 679.72 914.715 679.72C916.166 679.72 917.329 679.24 918.203 678.28C919.099 677.32 919.547 675.965 919.547 674.216V673.32C919.547 671.485 919.099 670.066 918.203 669.064C917.307 668.061 916.145 667.56 914.715 667.56C913.286 667.56 912.123 668.061 911.227 669.064C910.331 670.045 909.883 671.421 909.883 673.192V674.088ZM922.459 674.088C922.459 675.709 922.129 677.117 921.467 678.312C920.827 679.506 919.921 680.424 918.747 681.064C917.595 681.704 916.251 682.024 914.715 682.024C913.179 682.024 911.825 681.704 910.651 681.064C909.499 680.424 908.593 679.517 907.931 678.344C907.291 677.17 906.971 675.794 906.971 674.216V673.32C906.971 671.677 907.302 670.258 907.963 669.064C908.625 667.848 909.531 666.909 910.683 666.248C911.857 665.586 913.201 665.256 914.715 665.256C916.251 665.256 917.595 665.586 918.747 666.248C919.921 666.888 920.827 667.805 921.467 669C922.129 670.194 922.459 671.592 922.459 673.192V674.088ZM915.515 663.4H913.147L915.643 658.728H919.035L915.515 663.4ZM925.878 673.32C925.878 671.656 926.208 670.226 926.87 669.032C927.552 667.816 928.48 666.888 929.654 666.248C930.848 665.586 932.192 665.256 933.686 665.256C935.115 665.256 936.31 665.522 937.27 666.056C938.23 666.568 938.966 667.229 939.478 668.04C939.99 668.829 940.288 669.64 940.374 670.472H937.43C937.28 669.725 936.896 669.053 936.278 668.456C935.659 667.858 934.742 667.56 933.526 667.56C932.096 667.56 930.944 668.04 930.07 669C929.216 669.96 928.79 671.336 928.79 673.128V674.152C928.79 675.901 929.227 677.266 930.102 678.248C930.998 679.229 932.16 679.72 933.59 679.72C934.784 679.72 935.702 679.41 936.342 678.792C937.003 678.152 937.408 677.405 937.558 676.552H940.438C940.352 677.469 940.032 678.354 939.478 679.208C938.944 680.04 938.176 680.722 937.174 681.256C936.171 681.768 934.934 682.024 933.462 682.024C931.947 682.024 930.614 681.704 929.462 681.064C928.331 680.424 927.446 679.517 926.806 678.344C926.187 677.149 925.878 675.752 925.878 674.152V673.32ZM944.369 681.64V665.64H947.249V681.64H944.369ZM944.113 662.824V659.496H947.505V662.824H944.113ZM954.008 674.088C954.008 675.922 954.456 677.32 955.352 678.28C956.248 679.24 957.411 679.72 958.84 679.72C960.291 679.72 961.454 679.24 962.328 678.28C963.224 677.32 963.672 675.965 963.672 674.216V673.32C963.672 671.485 963.224 670.066 962.328 669.064C961.432 668.061 960.27 667.56 958.84 667.56C957.411 667.56 956.248 668.061 955.352 669.064C954.456 670.045 954.008 671.421 954.008 673.192V674.088ZM966.584 674.088C966.584 675.709 966.254 677.117 965.592 678.312C964.952 679.506 964.046 680.424 962.872 681.064C961.72 681.704 960.376 682.024 958.84 682.024C957.304 682.024 955.95 681.704 954.776 681.064C953.624 680.424 952.718 679.517 952.056 678.344C951.416 677.17 951.096 675.794 951.096 674.216V673.32C951.096 671.677 951.427 670.258 952.088 669.064C952.75 667.848 953.656 666.909 954.808 666.248C955.982 665.586 957.326 665.256 958.84 665.256C960.376 665.256 961.72 665.586 962.872 666.248C964.046 666.888 964.952 667.805 965.592 669C966.254 670.194 966.584 671.592 966.584 673.192V674.088ZM976.411 682.024C974.982 682.024 973.788 681.8 972.828 681.352C971.868 680.882 971.142 680.264 970.652 679.496C970.161 678.706 969.884 677.842 969.82 676.904H972.668C972.753 677.693 973.105 678.386 973.724 678.984C974.342 679.56 975.313 679.848 976.635 679.848C977.702 679.848 978.556 679.645 979.196 679.24C979.836 678.813 980.156 678.205 980.156 677.416C980.156 676.776 979.942 676.285 979.516 675.944C979.11 675.581 978.577 675.325 977.916 675.176L974.332 674.312C973.137 674.013 972.145 673.554 971.356 672.936C970.588 672.296 970.204 671.368 970.204 670.152C970.204 669.149 970.481 668.285 971.036 667.56C971.59 666.834 972.358 666.269 973.34 665.864C974.321 665.458 975.441 665.256 976.7 665.256C978.108 665.256 979.26 665.49 980.156 665.96C981.073 666.408 981.756 667.005 982.204 667.752C982.673 668.498 982.929 669.288 982.972 670.12H980.252C980.166 669.437 979.836 668.818 979.26 668.264C978.705 667.709 977.788 667.432 976.508 667.432C975.462 667.432 974.62 667.645 973.98 668.072C973.34 668.498 973.02 669.096 973.02 669.864C973.02 670.461 973.222 670.898 973.628 671.176C974.054 671.453 974.588 671.677 975.228 671.848L978.812 672.712C980.07 673.01 981.073 673.501 981.82 674.184C982.588 674.866 982.972 675.848 982.972 677.128C982.972 678.173 982.694 679.058 982.14 679.784C981.585 680.509 980.817 681.064 979.836 681.448C978.854 681.832 977.713 682.024 976.411 682.024Z" fill="black"/>
</svg>
